PathFileType	4	(X/Y/Z)	C:/Users/opensim2020/Desktop/walking_exp_matlab/subject01_walking04_straight_01.trc																																																																																																																															
DataRate	CameraRate	NumFrames	NumMarkers	Units	OrigDataRate	OrigDataStartFrame	OrigNumFrames																																																																																																																											
100	100	4	43	mm	100	866	216																																																																																																																											
Frame#	Time	LFHD			RFHD			LBHD			RBHD			C7			T10			CLAV			STRN			RBAK			LSHO			LUPA			LELB			LFRM			LWRA			LWRB			LFIN			RSHO			RUPA			RELB			RFRM			RWRA			RWRB			RFIN			LASI			RASI			LPSI			RPSI			LTHI			LKNE			LTIB			LANK			LHEE			LTOE			RTHI			RKNE			RTIB			RANK			RHEE			RTOE			*39			*40			*41			*42		
		X1	Y1	Z1	X2	Y2	Z2	X3	Y3	Z3	X4	Y4	Z4	X5	Y5	Z5	X6	Y6	Z6	X7	Y7	Z7	X8	Y8	Z8	X9	Y9	Z9	X10	Y10	Z10	X11	Y11	Z11	X12	Y12	Z12	X13	Y13	Z13	X14	Y14	Z14	X15	Y15	Z15	X16	Y16	Z16	X17	Y17	Z17	X18	Y18	Z18	X19	Y19	Z19	X20	Y20	Z20	X21	Y21	Z21	X22	Y22	Z22	X23	Y23	Z23	X24	Y24	Z24	X25	Y25	Z25	X26	Y26	Z26	X27	Y27	Z27	X28	Y28	Z28	X29	Y29	Z29	X30	Y30	Z30	X31	Y31	Z31	X32	Y32	Z32	X33	Y33	Z33	X34	Y34	Z34	X35	Y35	Z35	X36	Y36	Z36	X37	Y37	Z37	X38	Y38	Z38	X39	Y39	Z39	X40	Y40	Z40	X41	Y41	Z41	X42	Y42	Z42	X43	Y43	Z43
																																																																																																																																		
55	0.54	-497.11197	1675.34204	-1072.48145	-484.9169	1681.31702	-958.79932	-606.22357	1613.24683	-1066.14136	-596.37592	1617.88379	-945.50067	-624.97089	1429.53918	-1022.70905	-654.15894	1135.60376	-1010.20502	-478.97644	1365.53613	-1023.76691	-432.69711	1211.52783	-1030.53809	-672.35132	1233.88281	-941.14423	-544.45654	1389.34119	-1183.5946	-568.74152	1207.76306	-1271.3833	-574.59033	1054.91919	-1280.71472	-510.96967	958.75763	-1309.08044	-402.41397	871.41364	-1297.92432	-454.90204	850.20306	-1318.10767	-389.90927	798.08728	-1331.98535	-539.62732	1391.98572	-870.14594	-604.59991	1195.28357	-769.70117	-608.45538	1069.87695	-765.3808	-584.18152	951.98553	-732.40161	-504.00797	834.396	-748.36432	-549.99939	835.73376	-711.10315	-513.34668	758.0575	-711.72168	-485.11096	927.8288	-1127.71606	-469.71112	932.64648	-912.95044	-668.0036	942.80383	-1061.80518	-657.22839	948.76038	-915.91614	-525.90417	595.63873	-1200.72937	-546.04181	463.20917	-1199.59961	-697.04547	355.26276	-1208.65259	-861.19025	210.60207	-1159.86157	-897.4928	227.88104	-1100.32813	-828.62445	60.95737	-1159.61108	-487.38904	601.30359	-858.51453	-455.0173	447.63937	-891.47595	-493.54593	273.74088	-889.7442	-502.9415	72.59794	-947.72498	-548.89478	34.78858	-1000.26007	-361.22382	34.81104	-943.86115	-502.10489	1713.31714	-980.53552	1973.16479	1024.06458	-3102.05127	2013.09338	1022.21863	-3138.41602	NaN	NaN	NaN
56	0.55	-487.5224	1676.21191	-1071.11694	-475.46158	1682.28467	-957.21143	-596.62463	1613.88794	-1064.53223	-586.65771	1618.47168	-943.88586	-615.3645	1430.50171	-1020.96857	-645.17474	1136.53809	-1008.52869	-469.4277	1365.96436	-1022.62567	-423.62335	1211.85059	-1029.25659	-663.08411	1235.07922	-939.15106	-535.40143	1390.02258	-1182.17334	-561.11719	1208.17993	-1269.21472	-567.71405	1055.54749	-1278.33984	-506.01465	958.05798	-1306.47314	-399.73911	868.3421	-1295.55408	-452.73074	848.30316	-1315.68213	-389.00662	794.59576	-1329.36951	-529.36816	1392.49109	-868.75848	-593.19299	1195.92383	-767.19659	-596.92725	1070.36621	-762.53119	-571.34906	952.67914	-729.79028	-490.6788	835.58325	-746.75555	-535.70477	836.82562	-709.03339	-498.04602	759.58838	-709.82306	-476.10757	928.53149	-1126.43872	-461.34033	933.01831	-911.2951	-659.1629	942.76758	-1061.38745	-649.16675	948.81488	-915.52838	-509.60294	596.65039	-1199.57996	-526.6673	464.06015	-1198.41553	-677.51611	356.62277	-1207.1239	-843.75159	214.28516	-1158.26978	-880.27899	230.7709	-1098.60767	-810.69757	65.03946	-1159.84912	-482.53159	601.45148	-858.05109	-452.27335	447.33771	-890.81696	-492.29468	273.88452	-889.25201	-502.76459	72.59925	-947.71619	-548.92841	34.86484	-1000.27618	-361.19165	34.68696	-943.82617	-492.57007	1713.92749	-978.98608	1972.95679	1023.92303	-3102.59473	2012.68213	1022.0434	-3139.98267	NaN	NaN	NaN
57	0.56	-477.97174	1676.90454	-1069.65515	-465.65625	1682.76379	-955.78992	-587.09381	1614.50635	-1063.0647	-576.98407	1619.0498	-942.4411	-605.66083	1431.38379	-1019.16168	-636.31763	1137.61865	-1006.91266	-459.99002	1366.42041	-1021.41113	-414.68689	1212.16699	-1028.06226	-653.89746	1236.22717	-937.39526	-526.41718	1390.74841	-1180.81238	-553.62274	1208.65442	-1267.10132	-560.94446	1056.23438	-1275.96753	-501.62384	957.68872	-1304.17126	-397.28629	865.34021	-1293.16992	-450.78162	846.56122	-1313.14783	-388.37433	791.24304	-1326.73792	-519.17023	1393.28613	-867.30933	-581.71075	1196.58533	-764.77301	-585.27136	1070.94043	-759.65955	-558.29504	953.46881	-727.21252	-476.4599	837.42358	-745.09412	-520.75018	838.04254	-706.60516	-482.80124	761.22675	-708.01776	-467.08902	929.40717	-1125.3031	-454.01599	933.20691	-909.94244	-650.38177	942.96838	-1061.05334	-639.31482	947.87714	-916.086	-493.50912	598.1767	-1198.6825	-507.33536	465.49466	-1197.16016	-658.36029	358.37439	-1205.74927	-825.492	216.99529	-1156.74841	-862.69849	232.95248	-1097.13989	-791.3064	68.25433	-1159.16577	-478.08633	601.52313	-857.62836	-449.86115	446.99066	-890.263	-490.93469	273.89343	-888.8642	-502.9303	72.75179	-947.72119	-549.01544	34.99519	-1000.32239	-361.15955	34.60306	-943.7666	-483.05035	1714.4563	-977.66199	1973.14771	1024.00781	-3102.0957	2012.63135	1022.13049	-3140.30444	NaN	NaN	NaN
58	0.57	-468.45496	1677.5614	-1068.33057	-456.16196	1683.32043	-954.64825	-577.45886	1615.03662	-1061.53284	-567.28003	1619.62805	-940.97247	-596.27472	1432.31799	-1017.49554	-627.50244	1138.61121	-1005.51422	-450.76123	1366.85071	-1020.21552	-405.86981	1212.4906	-1026.922	-644.76996	1237.3772	-935.73553	-517.47858	1391.44946	-1179.44836	-546.18024	1209.19165	-1265.1543	-554.28394	1056.99426	-1273.52246	-496.91867	957.35156	-1301.61414	-395.01828	862.5116	-1290.80835	-448.92273	844.98102	-1310.78723	-387.94922	788.06592	-1324.08093	-509.24295	1393.8446	-866.13782	-570.30566	1197.198	-762.46039	-573.50793	1071.59497	-756.91321	-545.21216	954.34607	-724.74799	-462.58469	839.06793	-743.23212	-506.32361	839.34857	-704.33331	-467.62747	763.0036	-705.86304	-458.10281	930.31055	-1124.12378	-445.30612	933.88708	-908.11682	-641.60382	943.38751	-1060.79431	-631.43146	948.19788	-915.79352	-477.62585	599.87506	-1197.77368	-488.40228	467.2117	-1195.90198	-639.22742	360.0412	-1204.2168	-806.59296	218.52484	-1155.31531	-844.83972	234.24092	-1095.97839	-770.59772	70.8183	-1157.86072	-473.68335	601.7066	-857.14758	-446.89752	446.6983	-889.66461	-489.40469	273.7775	-888.65918	-502.51453	72.69497	-947.56207	-549.1684	35.19482	-1000.32446	-361.16995	34.49258	-943.70465	-473.46567	1715.14673	-976.39771	1973.03027	1024.05676	-3102.19336	2012.60938	1021.9552	-3140.31567	NaN	NaN	NaN
